# Summary of subtitles metadata feature
- After including the feature of embeded subtitles in the mp4 container, I wanted to verify the file contained the subtitles.
- This lead me to adding details to the metadata of the video.

## ffprobe output
```shell
root@docker2404:/var/lib/docker/volumes/tubearchivist_media-dev/_data/UCvHGfNuYBWJW54YRUz_jU_g# ffprobe -v quiet -print_format json -show_streams -show_format wnWi5OmG7HA.mp4
```

<details>
<summary>JSON Output (click to expand)</summary>

```json
{
    "streams": [
        {
            "index": 0,
            "codec_name": "av1",
            "codec_long_name": "Alliance for Open Media AV1",
            "profile": "Main",
            "codec_type": "video",
            "codec_tag_string": "av01",
            "codec_tag": "0x31307661",
            "width": 1280,
            "height": 720,
            "coded_width": 1280,
            "coded_height": 720,
            "closed_captions": 0,
            "film_grain": 0,
            "has_b_frames": 0,
            "pix_fmt": "yuv420p",
            "level": 5,
            "color_range": "tv",
            "color_space": "bt709",
            "color_transfer": "bt709",
            "color_primaries": "bt709",
            "refs": 1,
            "id": "0x1",
            "r_frame_rate": "24/1",
            "avg_frame_rate": "24/1",
            "time_base": "1/12288",
            "start_pts": 0,
            "start_time": "0.000000",
            "duration_ts": 78534656,
            "duration": "6391.166667",
            "bit_rate": "530377",
            "nb_frames": "153388",
            "extradata_size": 20,
            "disposition": {
                "default": 1,
                "dub": 0,
                "original": 0,
                "comment": 0,
                "lyrics": 0,
                "karaoke": 0,
                "forced": 0,
                "hearing_impaired": 0,
                "visual_impaired": 0,
                "clean_effects": 0,
                "attached_pic": 0,
                "timed_thumbnails": 0,
                "captions": 0,
                "descriptions": 0,
                "metadata": 0,
                "dependent": 0,
                "still_image": 0
            },
            "tags": {
                "language": "und",
                "handler_name": "ISO Media file produced by Google Inc.",
                "vendor_id": "[0][0][0][0]"
            }
        },
        {
            "index": 1,
            "codec_name": "aac",
            "codec_long_name": "AAC (Advanced Audio Coding)",
            "profile": "LC",
            "codec_type": "audio",
            "codec_tag_string": "mp4a",
            "codec_tag": "0x6134706d",
            "sample_fmt": "fltp",
            "sample_rate": "44100",
            "channels": 2,
            "channel_layout": "stereo",
            "bits_per_sample": 0,
            "initial_padding": 0,
            "id": "0x2",
            "r_frame_rate": "0/0",
            "avg_frame_rate": "0/0",
            "time_base": "1/44100",
            "start_pts": 0,
            "start_time": "0.000000",
            "duration_ts": 281852928,
            "duration": "6391.222857",
            "bit_rate": "127999",
            "nb_frames": "275247",
            "extradata_size": 16,
            "disposition": {
                "default": 1,
                "dub": 0,
                "original": 0,
                "comment": 0,
                "lyrics": 0,
                "karaoke": 0,
                "forced": 0,
                "hearing_impaired": 0,
                "visual_impaired": 0,
                "clean_effects": 0,
                "attached_pic": 0,
                "timed_thumbnails": 0,
                "captions": 0,
                "descriptions": 0,
                "metadata": 0,
                "dependent": 0,
                "still_image": 0
            },
            "tags": {
                "language": "und",
                "handler_name": "ISO Media file produced by Google Inc.",
                "vendor_id": "[0][0][0][0]"
            }
        },
        {
            "index": 2,
            "codec_name": "mov_text",
            "codec_long_name": "MOV text",
            "codec_type": "subtitle",
            "codec_tag_string": "tx3g",
            "codec_tag": "0x67337874",
            "id": "0x4",
            "r_frame_rate": "0/0",
            "avg_frame_rate": "0/0",
            "time_base": "1/1000000",
            "start_pts": 0,
            "start_time": "0.000000",
            "duration_ts": 5886241000,
            "duration": "5886.241000",
            "bit_rate": "11",
            "nb_frames": "291",
            "extradata_size": 68,
            "disposition": {
                "default": 1,
                "dub": 0,
                "original": 0,
                "comment": 0,
                "lyrics": 0,
                "karaoke": 0,
                "forced": 0,
                "hearing_impaired": 0,
                "visual_impaired": 0,
                "clean_effects": 0,
                "attached_pic": 0,
                "timed_thumbnails": 0,
                "captions": 0,
                "descriptions": 0,
                "metadata": 0,
                "dependent": 0,
                "still_image": 0
            },
            "tags": {
                "language": "eng",
                "handler_name": "English (United States)"
            }
        },
        {
            "index": 3,
            "codec_name": "bin_data",
            "codec_long_name": "binary data",
            "codec_type": "data",
            "codec_tag_string": "text",
            "codec_tag": "0x74786574",
            "id": "0x5",
            "r_frame_rate": "0/0",
            "avg_frame_rate": "0/0",
            "time_base": "1/1000",
            "start_pts": 0,
            "start_time": "0.000000",
            "duration_ts": 6391000,
            "duration": "6391.000000",
            "bit_rate": "1",
            "nb_frames": "23",
            "extradata_size": 63,
            "disposition": {
                "default": 0,
                "dub": 0,
                "original": 0,
                "comment": 0,
                "lyrics": 0,
                "karaoke": 0,
                "forced": 0,
                "hearing_impaired": 0,
                "visual_impaired": 0,
                "clean_effects": 0,
                "attached_pic": 0,
                "timed_thumbnails": 0,
                "captions": 0,
                "descriptions": 0,
                "metadata": 0,
                "dependent": 0,
                "still_image": 0
            },
            "tags": {
                "language": "eng",
                "handler_name": "SubtitleHandler"
            }
        },
        {
            "index": 4,
            "codec_name": "png",
            "codec_long_name": "PNG (Portable Network Graphics) image",
            "codec_type": "video",
            "codec_tag_string": "[0][0][0][0]",
            "codec_tag": "0x0000",
            "width": 1280,
            "height": 720,
            "coded_width": 1280,
            "coded_height": 720,
            "closed_captions": 0,
            "film_grain": 0,
            "has_b_frames": 0,
            "pix_fmt": "rgb24",
            "level": -99,
            "color_range": "pc",
            "refs": 1,
            "id": "0x0",
            "r_frame_rate": "90000/1",
            "avg_frame_rate": "0/0",
            "time_base": "1/90000",
            "start_pts": 0,
            "start_time": "0.000000",
            "duration_ts": 575210057,
            "duration": "6391.222856",
            "disposition": {
                "default": 0,
                "dub": 0,
                "original": 0,
                "comment": 0,
                "lyrics": 0,
                "karaoke": 0,
                "forced": 0,
                "hearing_impaired": 0,
                "visual_impaired": 0,
                "clean_effects": 0,
                "attached_pic": 1,
                "timed_thumbnails": 0,
                "captions": 0,
                "descriptions": 0,
                "metadata": 0,
                "dependent": 0,
                "still_image": 0
            }
        }
    ],
    "format": {
        "filename": "wnWi5OmG7HA.mp4",
        "nb_streams": 5,
        "nb_programs": 0,
        "format_name": "mov,mp4,m4a,3gp,3g2,mj2",
        "format_long_name": "QuickTime / MOV",
        "start_time": "0.000000",
        "duration": "6391.222857",
        "size": "531081487",
        "bit_rate": "664763",
        "probe_score": 100,
        "tags": {
            "major_brand": "isom",
            "minor_version": "512",
            "compatible_brands": "isomav01iso2mp41",
            "title": "1973 Station Wagon.",
            "artist": "SimonFordman",
            "date": "20250913",
            "encoder": "Lavf62.5.100",
            "comment": "https://www.youtube.com/watch?v=wnWi5OmG7HA",
            "description": "- Turn on subtitles or view the transcript at the bottom of the description if you'd like explanations on what I'm doing throughout the video\n- I just bought this 1973 Mercury Montego MX,  a full-size station wagon. The car has been in the same family since new and it spent most of its life out in Montana until it was moved here, where it's been sitting as you see it for about 10 years. Though it hasn't ran for a couple decades. I anticipated this to be a pretty easy project, compared to other ones, as it hasn't sat for that long and it's not nearly as rusted. Turns out I was wrong as the 351 Cleveland engine was more stuck than any motor I've dealt with. After much persuasion, I got it running and driving once again. I like station wagons. \n\nChapters:\n00:00 - Getting it home\n06:33 - First look at the engine, rusted spark plugs, sticky valves. \n11:22 - Will it spin? No\n12:26 - 1st attempt to un-seize the engine. \n17:09 - Disassembling the engine \n22:39 - 2nd attempt to un-seize the engine \n24:20 - 3rd attempt to un-seize the engine\n27:25 - Engine un-seized. \n30:50 - Preparing parts for re-assembly\n42:27 - Re-assembling the engine \n52:46 - First start\n56:30 - Pressure washing\n1:02:59 - Tailgate\n1:05:24 - Cleaning the interior\n1:19:00 - Finishing assembly of the engine. \n1:24:00 - Fuel system\n1:26:42 - Exhaust\n1:29:23 - Brakes\n1:32:22 - Oil change\n1:33:33 - Startup and checks\n1:35:10 - Finishing touches before driving.\n1:37:02 - Driving it\n1:43:30 - Cats",
            "synopsis": "- Turn on subtitles or view the transcript at the bottom of the description if you'd like explanations on what I'm doing throughout the video\n- I just bought this 1973 Mercury Montego MX,  a full-size station wagon. The car has been in the same family since new and it spent most of its life out in Montana until it was moved here, where it's been sitting as you see it for about 10 years. Though it hasn't ran for a couple decades. I anticipated this to be a pretty easy project, compared to other ones, as it hasn't sat for that long and it's not nearly as rusted. Turns out I was wrong as the 351 Cleveland engine was more stuck than any motor I've dealt with. After much persuasion, I got it running and driving once again. I like station wagons. \n\nChapters:\n00:00 - Getting it home\n06:33 - First look at the engine, rusted spark plugs, sticky valves. \n11:22 - Will it spin? No\n12:26 - 1st attempt to un-seize the engine. \n17:09 - Disassembling the engine \n22:39 - 2nd attempt to un-seize the engine \n24:20 - 3rd attempt to un-seize the engine\n27:25 - Engine un-seized. \n30:50 - Preparing parts for re-assembly\n42:27 - Re-assembling the engine \n52:46 - First start\n56:30 - Pressure washing\n1:02:59 - Tailgate\n1:05:24 - Cleaning the interior\n1:19:00 - Finishing assembly of the engine. \n1:24:00 - Fuel system\n1:26:42 - Exhaust\n1:29:23 - Brakes\n1:32:22 - Oil change\n1:33:33 - Startup and checks\n1:35:10 - Finishing touches before driving.\n1:37:02 - Driving it\n1:43:30 - Cats"
        }
    }
}
```

</details>
